<?xml version="1.0" encoding="UTF-8" standalone="no"?>
<!-- Created with Inkscape (http://www.inkscape.org/) -->

<svg
   xmlns:dc="http://purl.org/dc/elements/1.1/"
   xmlns:cc="http://creativecommons.org/ns#"
   xmlns:rdf="http://www.w3.org/1999/02/22-rdf-syntax-ns#"
   xmlns:svg="http://www.w3.org/2000/svg"
   xmlns="http://www.w3.org/2000/svg"
   xmlns:sodipodi="http://sodipodi.sourceforge.net/DTD/sodipodi-0.dtd"
   xmlns:inkscape="http://www.inkscape.org/namespaces/inkscape"
   width="157.67188mm"
   height="114.64339mm"
   viewBox="0 0 157.67187 114.64339"
   version="1.1"
   id="svg8"
   inkscape:version="0.92.1 r15371"
   sodipodi:docname="logo.svg">
  <defs
     id="defs2" />
  <sodipodi:namedview
     id="base"
     pagecolor="#ffffff"
     bordercolor="#666666"
     borderopacity="1.0"
     inkscape:pageopacity="0.0"
     inkscape:pageshadow="2"
     inkscape:zoom="0.7"
     inkscape:cx="307.85052"
     inkscape:cy="-43.852883"
     inkscape:document-units="mm"
     inkscape:current-layer="text4487-6-56"
     showgrid="false"
     inkscape:window-width="1920"
     inkscape:window-height="1029"
     inkscape:window-x="1920"
     inkscape:window-y="27"
     inkscape:window-maximized="1"
     showguides="true"
     inkscape:guide-bbox="true"
     fit-margin-top="0"
     fit-margin-left="0"
     fit-margin-right="0"
     fit-margin-bottom="0" />
  <metadata
     id="metadata5">
    <rdf:RDF>
      <cc:Work
         rdf:about="">
        <dc:format>image/svg+xml</dc:format>
        <dc:type
           rdf:resource="http://purl.org/dc/dcmitype/StillImage" />
        <dc:title />
      </cc:Work>
    </rdf:RDF>
  </metadata>
  <g
     inkscape:label="Layer 1"
     inkscape:groupmode="layer"
     id="layer1"
     transform="translate(-22.341716,-13.771497)">
    <text
       xml:space="preserve"
       style="font-style:normal;font-weight:normal;font-size:10.58333302px;line-height:125%;font-family:sans-serif;letter-spacing:0px;word-spacing:0px;fill:#000000;fill-opacity:1;stroke:none;stroke-width:0.26458332px;stroke-linecap:butt;stroke-linejoin:miter;stroke-opacity:1"
       x="125.11012"
       y="44.889877"
       id="text4597"><tspan
         sodipodi:role="line"
         id="tspan4595"
         x="125.11012"
         y="54.253647"
         style="stroke-width:0.26458332px" /></text>
    <text
       xml:space="preserve"
       style="font-style:normal;font-weight:normal;font-size:10.58333302px;line-height:125%;font-family:sans-serif;letter-spacing:0px;word-spacing:0px;fill:#000000;fill-opacity:1;stroke:none;stroke-width:0.26458332px;stroke-linecap:butt;stroke-linejoin:miter;stroke-opacity:1"
       x="125.67708"
       y="44.889877"
       id="text4601"><tspan
         sodipodi:role="line"
         id="tspan4599"
         x="125.67708"
         y="54.253647"
         style="stroke-width:0.26458332px" /></text>
    <text
       xml:space="preserve"
       style="font-style:normal;font-variant:normal;font-weight:normal;font-stretch:normal;font-size:11.7598238px;line-height:125%;font-family:'Ubuntu Condensed';-inkscape-font-specification:'Ubuntu Condensed, Normal';font-variant-ligatures:normal;font-variant-caps:normal;font-variant-numeric:normal;font-feature-settings:normal;text-align:start;letter-spacing:0px;word-spacing:0px;writing-mode:lr-tb;text-anchor:start;fill:#ffffff;fill-opacity:1;stroke:none;stroke-width:0.29399464px;stroke-linecap:butt;stroke-linejoin:miter;stroke-opacity:1"
       x="55.733547"
       y="74.808365"
       id="text4487-6-5-6"><tspan
         sodipodi:role="line"
         x="55.733547"
         y="85.774307"
         style="font-style:normal;font-variant:normal;font-weight:bold;font-stretch:normal;font-size:11.75978851px;font-family:'Josefin Sans';-inkscape-font-specification:'Josefin Sans Bold';font-variant-ligatures:normal;font-variant-caps:normal;font-variant-numeric:normal;font-feature-settings:normal;text-align:start;writing-mode:lr-tb;text-anchor:start;fill:#ffffff;stroke-width:0.29399464px"
         id="tspan5226-9-5" /></text>
    <g
       aria-label="kanate universe"
       style="font-style:normal;font-variant:normal;font-weight:bold;font-stretch:normal;font-size:24.9638176px;line-height:125%;font-family:'Josefin Sans';-inkscape-font-specification:'Josefin Sans, Bold';font-variant-ligatures:normal;font-variant-caps:normal;font-variant-numeric:normal;font-feature-settings:normal;text-align:start;letter-spacing:0px;word-spacing:0px;writing-mode:lr-tb;text-anchor:start;fill:#ff7f2a;fill-opacity:1;stroke:none;stroke-width:0.62409526px;stroke-linecap:butt;stroke-linejoin:miter;stroke-opacity:1"
       id="text4487-6-56">
      <path
         d="m 29.980644,116.93153 1.422938,1.39797 q -0.948625,0.87373 -1.822359,1.7225 -0.84877,0.82381 -1.797395,1.69754 1.123372,1.49783 2.196816,3.02062 1.073444,1.5228 2.196816,3.02063 h -2.74602 q -0.823806,-1.12338 -1.672576,-2.22178 -0.848769,-1.12337 -1.647612,-2.24675 l -1.37301,1.24819 v 3.22034 h -2.396526 v -19.49674 h 2.396526 v 13.50542 q 1.348047,-1.27315 2.621201,-2.42149 1.273155,-1.1733 2.621201,-2.44645 z"
         style="font-style:normal;font-variant:normal;font-weight:bold;font-stretch:normal;font-size:24.9638176px;font-family:'Josefin Sans';-inkscape-font-specification:'Josefin Sans, Bold';font-variant-ligatures:normal;font-variant-caps:normal;font-variant-numeric:normal;font-feature-settings:normal;text-align:start;writing-mode:lr-tb;text-anchor:start;fill:#ff7f2a;fill-opacity:1;stroke-width:0.62409526px"
         id="path3705" />
      <path
         d="m 32.686878,122.59831 q 0,-1.14833 0.449349,-2.17185 0.449348,-1.04848 1.198263,-1.82236 0.773878,-0.77388 1.772431,-1.22323 1.023516,-0.47431 2.146888,-0.47431 0.748915,0 1.348046,0.19971 0.599132,0.17475 1.023517,0.42439 0.449349,0.24964 0.698987,0.52424 0.249638,0.24964 0.324529,0.39942 l 0.09986,-1.27316 h 2.321635 v 10.60963 h -2.421491 v -0.69899 q 0,-0.12482 0,-0.22467 0.02496,-0.12482 0.02496,-0.17475 -0.09985,0.12482 -0.349493,0.37446 -0.249638,0.22467 -0.674023,0.44934 -0.424385,0.22468 -1.023517,0.37446 -0.574168,0.17475 -1.348046,0.17475 -1.223227,0 -2.246744,-0.44935 -1.023516,-0.44935 -1.772431,-1.19826 -0.748914,-0.74892 -1.173299,-1.72251 -0.399421,-0.99855 -0.399421,-2.09696 z m 2.42149,-0.14978 q 0,0.69899 0.224675,1.29812 0.249638,0.59913 0.674023,1.04848 0.449348,0.42438 1.04848,0.67402 0.599132,0.24964 1.323082,0.24964 0.723951,0 1.323083,-0.24964 0.599131,-0.24964 1.023516,-0.69899 0.449349,-0.44934 0.674023,-1.04848 0.249638,-0.59913 0.249638,-1.27315 0,-0.67402 -0.249638,-1.24819 -0.224674,-0.59913 -0.674023,-1.02352 -0.424385,-0.42438 -1.023516,-0.67402 -0.599132,-0.24964 -1.323083,-0.24964 -0.72395,0 -1.323082,0.24964 -0.599132,0.22467 -1.04848,0.67402 -0.424385,0.42439 -0.674023,1.02352 -0.224675,0.57417 -0.224675,1.24819 z"
         style="font-style:normal;font-variant:normal;font-weight:bold;font-stretch:normal;font-size:24.9638176px;font-family:'Josefin Sans';-inkscape-font-specification:'Josefin Sans, Bold';font-variant-ligatures:normal;font-variant-caps:normal;font-variant-numeric:normal;font-feature-settings:normal;text-align:start;writing-mode:lr-tb;text-anchor:start;fill:#ff7f2a;fill-opacity:1;stroke-width:0.62409526px"
         id="path3707" />
      <path
         d="m 47.012988,117.18116 h 2.096961 q 0.04993,0.8987 0.09985,1.47287 0.07489,0.5492 0.124819,1.24819 0.574168,-1.34805 1.622648,-2.17185 1.048481,-0.82381 2.621201,-0.82381 1.622648,0 2.571273,0.8987 0.973589,0.87373 1.023517,2.29667 v 7.68886 h -2.371563 v -6.56549 q -0.04993,-0.77388 -0.549204,-1.32308 -0.499276,-0.57417 -1.547756,-0.6241 -0.723951,0 -1.348047,0.27461 -0.599131,0.24964 -1.04848,0.69898 -0.424385,0.44935 -0.674023,1.07345 -0.224674,0.62409 -0.224674,1.34804 v 5.11759 h -2.396527 z"
         style="font-style:normal;font-variant:normal;font-weight:bold;font-stretch:normal;font-size:24.9638176px;font-family:'Josefin Sans';-inkscape-font-specification:'Josefin Sans, Bold';font-variant-ligatures:normal;font-variant-caps:normal;font-variant-numeric:normal;font-feature-settings:normal;text-align:start;writing-mode:lr-tb;text-anchor:start;fill:#ff7f2a;fill-opacity:1;stroke-width:0.62409526px"
         id="path3709" />
      <path
         d="m 59.357207,122.59831 q 0,-1.14833 0.449349,-2.17185 0.449348,-1.04848 1.198263,-1.82236 0.773878,-0.77388 1.772431,-1.22323 1.023517,-0.47431 2.146888,-0.47431 0.748915,0 1.348047,0.19971 0.599131,0.17475 1.023516,0.42439 0.449349,0.24964 0.698987,0.52424 0.249638,0.24964 0.32453,0.39942 l 0.09985,-1.27316 h 2.321635 v 10.60963 h -2.42149 v -0.69899 q 0,-0.12482 0,-0.22467 0.02496,-0.12482 0.02496,-0.17475 -0.09986,0.12482 -0.349493,0.37446 -0.249638,0.22467 -0.674023,0.44934 -0.424385,0.22468 -1.023517,0.37446 -0.574167,0.17475 -1.348046,0.17475 -1.223227,0 -2.246743,-0.44935 -1.023517,-0.44935 -1.772431,-1.19826 -0.748915,-0.74892 -1.1733,-1.72251 -0.399421,-0.99855 -0.399421,-2.09696 z m 2.42149,-0.14978 q 0,0.69899 0.224675,1.29812 0.249638,0.59913 0.674023,1.04848 0.449348,0.42438 1.04848,0.67402 0.599132,0.24964 1.323082,0.24964 0.723951,0 1.323083,-0.24964 0.599131,-0.24964 1.023516,-0.69899 0.449349,-0.44934 0.674023,-1.04848 0.249639,-0.59913 0.249639,-1.27315 0,-0.67402 -0.249639,-1.24819 -0.224674,-0.59913 -0.674023,-1.02352 -0.424385,-0.42438 -1.023516,-0.67402 -0.599132,-0.24964 -1.323083,-0.24964 -0.72395,0 -1.323082,0.24964 -0.599132,0.22467 -1.04848,0.67402 -0.424385,0.42439 -0.674023,1.02352 -0.224675,0.57417 -0.224675,1.24819 z"
         style="font-style:normal;font-variant:normal;font-weight:bold;font-stretch:normal;font-size:24.9638176px;font-family:'Josefin Sans';-inkscape-font-specification:'Josefin Sans, Bold';font-variant-ligatures:normal;font-variant-caps:normal;font-variant-numeric:normal;font-feature-settings:normal;text-align:start;writing-mode:lr-tb;text-anchor:start;fill:#ff7f2a;fill-opacity:1;stroke-width:0.62409526px"
         id="path3711" />
      <path
         d="m 74.656907,112.53789 h 2.371563 v 4.64327 h 2.770984 v 2.14689 H 77.02847 v 8.46274 h -2.371563 v -8.46274 h -1.797395 v -2.14689 h 1.797395 z"
         style="font-style:normal;font-variant:normal;font-weight:bold;font-stretch:normal;font-size:24.9638176px;font-family:'Josefin Sans';-inkscape-font-specification:'Josefin Sans, Bold';font-variant-ligatures:normal;font-variant-caps:normal;font-variant-numeric:normal;font-feature-settings:normal;text-align:start;writing-mode:lr-tb;text-anchor:start;fill:#ff7f2a;fill-opacity:1;stroke-width:0.62409526px"
         id="path3713" />
      <path
         d="m 90.49879,126.56756 q -0.773879,0.69899 -1.872286,1.09841 -1.098408,0.39942 -2.246744,0.39942 -1.1733,0 -2.22178,-0.42439 -1.023516,-0.44934 -1.797395,-1.19826 -0.748914,-0.77388 -1.198263,-1.77243 -0.449349,-1.02352 -0.449349,-2.17185 0,-1.14834 0.449349,-2.14689 0.449349,-1.02352 1.198263,-1.77243 0.773879,-0.77388 1.772431,-1.19827 1.023517,-0.44934 2.146889,-0.44934 1.797395,0 3.145441,1.0984 1.37301,1.07345 1.947177,2.84588 -0.748914,0.2746 -1.747467,0.67402 -0.973589,0.37446 -2.047033,0.79884 -1.073444,0.42439 -2.146888,0.87374 -1.073444,0.42438 -1.972142,0.77388 0.424385,0.77387 1.1733,1.24819 0.748914,0.47431 1.697539,0.47431 0.64906,0 1.298119,-0.22467 0.674023,-0.24964 1.098408,-0.64906 z m -2.096961,-6.24095 q -0.299566,-0.54921 -0.898697,-0.79885 -0.599132,-0.2746 -1.1733,-0.2746 -0.674023,0 -1.273154,0.2746 -0.599132,0.24964 -1.023517,0.69899 -0.424385,0.42438 -0.674023,0.99855 -0.249638,0.54921 -0.249638,1.14834 v 0.0999 q 0.624095,-0.24963 1.323082,-0.52424 0.723951,-0.29956 1.422938,-0.59913 0.72395,-0.29956 1.37301,-0.5492 0.649059,-0.2746 1.173299,-0.47431 z"
         style="font-style:normal;font-variant:normal;font-weight:bold;font-stretch:normal;font-size:24.9638176px;font-family:'Josefin Sans';-inkscape-font-specification:'Josefin Sans, Bold';font-variant-ligatures:normal;font-variant-caps:normal;font-variant-numeric:normal;font-feature-settings:normal;text-align:start;writing-mode:lr-tb;text-anchor:start;fill:#ff7f2a;fill-opacity:1;stroke-width:0.62409526px"
         id="path3715" />
      <path
         d="m 109.02506,128.04042 h -1.99711 l -0.29956,-2.94573 q -0.57417,1.27316 -1.59769,2.12193 -0.99855,0.8238 -2.64616,0.8238 -1.64761,0 -2.621201,-0.84876 -0.948625,-0.87374 -0.998553,-2.29668 v -7.71382 h 2.396524 v 6.59045 q 0.0499,0.77388 0.52424,1.32308 0.49928,0.52424 1.57272,0.57417 0.72395,0 1.32309,-0.24964 0.59913,-0.24963 1.02351,-0.69898 0.44935,-0.44935 0.69899,-1.07345 0.24964,-0.62409 0.24964,-1.34804 v -5.11759 h 2.37156 z"
         style="fill:#ffffff;stroke-width:0.62409526px"
         id="path3717" />
      <path
         d="m 111.95792,117.18116 h 2.09696 q 0.0499,0.8987 0.0999,1.47287 0.0749,0.5492 0.12481,1.24819 0.57417,-1.34805 1.62265,-2.17185 1.04848,-0.82381 2.6212,-0.82381 1.62265,0 2.57128,0.8987 0.97359,0.87373 1.02351,2.29667 v 7.68886 h -2.37156 v -6.56549 q -0.0499,-0.77388 -0.5492,-1.32308 -0.49928,-0.57417 -1.54776,-0.6241 -0.72395,0 -1.34805,0.27461 -0.59913,0.24964 -1.04848,0.69898 -0.42438,0.44935 -0.67402,1.07345 -0.22467,0.62409 -0.22467,1.34804 v 5.11759 h -2.39653 z"
         style="fill:#ffffff;stroke-width:0.62409526px"
         id="path3719" />
      <path
         d="m 124.70156,113.06213 q 0,-0.64905 0.47431,-1.07344 0.47431,-0.42438 1.02352,-0.42438 0.5492,0 0.99855,0.42438 0.47431,0.42439 0.47431,1.07344 0,0.67403 -0.47431,1.09841 -0.44935,0.39942 -0.99855,0.39942 -0.54921,0 -1.02352,-0.39942 -0.47431,-0.42438 -0.47431,-1.09841 z m 2.67113,14.72866 h -2.39653 v -10.60963 h 2.39653 z"
         style="fill:#ffffff;stroke-width:0.62409526px"
         id="path3721" />
      <path
         d="m 134.58333,128.41488 q -1.49783,-2.82091 -2.84588,-5.59189 -1.34804,-2.79595 -2.77098,-5.64183 h 2.59624 q 0.94862,1.84733 1.47286,2.9707 0.54921,1.12337 0.84877,1.82236 0.29957,0.69898 0.42439,1.12337 0.14978,0.39942 0.2746,0.84877 0.14978,-0.44935 0.2746,-0.84877 0.14978,-0.42439 0.44935,-1.12337 0.29957,-0.69899 0.82381,-1.82236 0.5492,-1.12337 1.49783,-2.9707 h 2.57127 q -1.42294,2.84588 -2.79595,5.64183 -1.37301,2.77098 -2.82091,5.59189 z"
         style="fill:#ffffff;stroke-width:0.62409526px"
         id="path3723" />
      <path
         d="m 150.47046,126.56756 q -0.77388,0.69899 -1.87228,1.09841 -1.09841,0.39942 -2.24675,0.39942 -1.1733,0 -2.22178,-0.42439 -1.02351,-0.44934 -1.79739,-1.19826 -0.74892,-0.77388 -1.19827,-1.77243 -0.44934,-1.02352 -0.44934,-2.17185 0,-1.14834 0.44934,-2.14689 0.44935,-1.02352 1.19827,-1.77243 0.77388,-0.77388 1.77243,-1.19827 1.02351,-0.44934 2.14689,-0.44934 1.79739,0 3.14544,1.0984 1.37301,1.07345 1.94718,2.84588 -0.74892,0.2746 -1.74747,0.67402 -0.97359,0.37446 -2.04703,0.79884 -1.07345,0.42439 -2.14689,0.87374 -1.07345,0.42438 -1.97214,0.77388 0.42438,0.77387 1.17329,1.24819 0.74892,0.47431 1.69754,0.47431 0.64906,0 1.29812,-0.22467 0.67403,-0.24964 1.09841,-0.64906 z m -2.09696,-6.24095 q -0.29956,-0.54921 -0.8987,-0.79885 -0.59913,-0.2746 -1.1733,-0.2746 -0.67402,0 -1.27315,0.2746 -0.59913,0.24964 -1.02352,0.69899 -0.42438,0.42438 -0.67402,0.99855 -0.24964,0.54921 -0.24964,1.14834 v 0.0999 q 0.6241,-0.24963 1.32308,-0.52424 0.72395,-0.29956 1.42294,-0.59913 0.72395,-0.29956 1.37301,-0.5492 0.64906,-0.2746 1.1733,-0.47431 z"
         style="fill:#ffffff;stroke-width:0.62409526px"
         id="path3725" />
      <path
         d="m 159.14813,120.00208 q -0.69899,0 -1.34805,0.17474 -0.6241,0.17475 -1.12337,0.54921 -0.47432,0.34949 -0.77388,0.89869 -0.29957,0.52424 -0.29957,1.24819 v 4.91788 h -2.39652 v -10.60963 h 2.09696 q 0.0499,0.8987 0.0999,1.47287 0.0749,0.5492 0.12482,1.24819 0.32453,-0.69899 0.87374,-1.24819 0.5492,-0.5492 1.12337,-0.92366 0.59913,-0.39942 1.1733,-0.59913 0.57416,-0.22468 0.97359,-0.22468 z"
         style="fill:#ffffff;stroke-width:0.62409526px"
         id="path3727" />
      <path
         d="m 167.34172,118.12979 q -0.14979,0.22467 -0.37446,0.52424 -0.19971,0.2746 -0.39942,0.52424 -0.19971,0.24964 -0.3495,0.44935 -0.12482,0.17475 -0.12482,0.17475 0,0 -0.12481,-0.0749 -0.12482,-0.0999 -0.37446,-0.19971 -0.22468,-0.0999 -0.54921,-0.17474 -0.29956,-0.0999 -0.62409,-0.0999 -0.34949,0 -0.74892,0.17475 -0.37445,0.14978 -0.37445,0.64906 0,0.42438 0.32453,0.72395 0.34949,0.2746 0.8238,0.52424 0.49928,0.22467 1.07345,0.47431 0.59913,0.24964 1.07344,0.6241 0.49928,0.37445 0.82381,0.94862 0.34949,0.54921 0.34949,1.37301 0,0.72395 -0.2746,1.32308 -0.24964,0.59913 -0.74892,1.02352 -0.47431,0.42438 -1.14833,0.67402 -0.67403,0.24964 -1.52279,0.24964 -1.02352,0 -1.99711,-0.34949 -0.94863,-0.3495 -1.49783,-0.99856 0.17475,-0.19971 0.42439,-0.49927 0.24963,-0.29957 0.47431,-0.57417 0.22467,-0.2746 0.37446,-0.44935 0.17474,-0.19971 0.17474,-0.19971 0,-0.025 0.14979,0.0999 0.17474,0.0999 0.44934,0.24963 0.27461,0.14979 0.64906,0.27461 0.37446,0.12482 0.77388,0.12482 0.6241,0 0.94863,-0.27461 0.34949,-0.2746 0.34949,-0.67402 0,-0.39942 -0.34949,-0.64906 -0.32453,-0.24964 -0.82381,-0.44935 -0.47431,-0.22467 -1.07344,-0.47431 -0.57417,-0.24964 -1.07345,-0.62409 -0.47431,-0.37446 -0.8238,-0.94863 -0.32453,-0.59913 -0.32453,-1.49783 0,-0.8987 0.32453,-1.49783 0.32453,-0.59913 0.8238,-0.97359 0.52424,-0.37445 1.12337,-0.52424 0.59914,-0.17474 1.1733,-0.17474 0.77388,0 1.59769,0.32453 0.84877,0.29956 1.42294,0.87373 z"
         style="fill:#ffffff;stroke-width:0.62409526px"
         id="path3729" />
      <path
         d="m 179.13985,126.56756 q -0.77388,0.69899 -1.87229,1.09841 -1.0984,0.39942 -2.24674,0.39942 -1.1733,0 -2.22178,-0.42439 -1.02352,-0.44934 -1.79739,-1.19826 -0.74892,-0.77388 -1.19827,-1.77243 -0.44935,-1.02352 -0.44935,-2.17185 0,-1.14834 0.44935,-2.14689 0.44935,-1.02352 1.19827,-1.77243 0.77387,-0.77388 1.77243,-1.19827 1.02351,-0.44934 2.14688,-0.44934 1.7974,0 3.14545,1.0984 1.37301,1.07345 1.94717,2.84588 -0.74891,0.2746 -1.74746,0.67402 -0.97359,0.37446 -2.04704,0.79884 -1.07344,0.42439 -2.14689,0.87374 -1.07344,0.42438 -1.97214,0.77388 0.42439,0.77387 1.1733,1.24819 0.74892,0.47431 1.69754,0.47431 0.64906,0 1.29812,-0.22467 0.67402,-0.24964 1.09841,-0.64906 z m -2.09696,-6.24095 q -0.29957,-0.54921 -0.8987,-0.79885 -0.59913,-0.2746 -1.1733,-0.2746 -0.67402,0 -1.27315,0.2746 -0.59913,0.24964 -1.02352,0.69899 -0.42438,0.42438 -0.67402,0.99855 -0.24964,0.54921 -0.24964,1.14834 v 0.0999 q 0.6241,-0.24963 1.32308,-0.52424 0.72395,-0.29956 1.42294,-0.59913 0.72395,-0.29956 1.37301,-0.5492 0.64906,-0.2746 1.1733,-0.47431 z"
         style="fill:#ffffff;stroke-width:0.62409526px"
         id="path3731" />
    </g>
    <g
       id="g5004-8-9"
       transform="matrix(1.0019831,0,0,1.0019831,63.108717,8.7615814)"
       style="fill:#303c4f;fill-opacity:0.94117647">
      <path
         id="path4963-0-0"
         d="m 31.7,11.4 c 0,0 -1.1,-6.4 -2.5,-6.4 -1.4,0 -2.1,4.4 -2.3,6.4 0,0 1.2,-0.3 2.4,-0.3 1.2,0 2.4,0.3 2.4,0.3 z"
         inkscape:connector-curvature="0"
         style="fill:#ff7f2a;fill-opacity:1" />
      <path
         id="path4965-5-7"
         d="m 48.6,11.4 c 0,0 -1.1,-6.4 -2.6,-6.4 -1.4,0 -2.1,4.4 -2.3,6.4 0,0 1.2,-0.3 2.4,-0.3 1.3,0 2.5,0.3 2.5,0.3 z"
         inkscape:connector-curvature="0"
         style="fill:#ff7f2a;fill-opacity:1" />
      <path
         id="path4967-6-6"
         d="m 19,66.2 c 1.6,-2.6 3.4,-11 3.4,-14.8 0,-3.8 -0.6,-11.8 -2.8,-14.5 -2.2,-2.7 -8.3,-7.4 -13.1,3 -4.8,10.5 0.5,22.3 2.4,24.6 1.8,2.3 7,6.6 10.1,1.7 z"
         inkscape:connector-curvature="0"
         style="fill:#ffffff;fill-opacity:0.94117647" />
      <path
         id="path4969-6-3"
         d="m 33.8,46 c 3.3,-6 3.3,-16.6 2.6,-21.3 -0.7,-4.6 -2.6,-10.6 -7,-10.7 -4.3,0 -8.4,7 -8.2,14.4 0,0 0.1,9.2 2.9,14 2.8,4.8 6.4,9.6 9.7,3.6 z"
         inkscape:connector-curvature="0"
         style="fill:#ffffff;fill-opacity:0.94117647" />
      <path
         id="path4971-4-7"
         d="m 45.6,48.3 c 5.4,1.5 7.8,-9.7 8.4,-11.9 0.5,-2.2 1,-12.2 -0.7,-16 -1.4,-3.1 -2.5,-6.2 -7.3,-6.3 -1.6,0 -6.8,1.2 -6.7,13.4 0,12.3 0.9,19.3 6.3,20.8 z"
         inkscape:connector-curvature="0"
         style="fill:#ffffff;fill-opacity:0.94117647" />
      <path
         id="path4973-0-6"
         d="m 71.3,45.6 c -0.5,-4.2 -3.8,-11.3 -9.5,-11.2 -5.7,0.1 -7.8,6.4 -8,15.6 0,0 -0.3,9.6 3,14.3 3.4,4.7 7.1,5.5 10.2,0.4 3.1,-5.1 5,-13.3 4.3,-19.1 z"
         inkscape:connector-curvature="0"
         style="fill:#ffffff;fill-opacity:0.94117647" />
      <path
         id="path4975-0-1"
         d="m 53.8,74.2 c -3.4,-3 -4.8,-4.2 -7,-11.8 -2.1,-7.6 -8.4,-8.2 -8.4,-8.2 0,0 -3.8,-0.4 -6.1,2.6 -2.3,3 -2.8,10.9 -4.9,13.7 -2.1,2.8 -9,7.8 -9.4,11.5 -0.3,3.8 -0.1,13 20.3,12.6 20.4,-0.3 20.9,-8.2 20.9,-11.4 0.2,-3.7 -1.9,-6 -5.4,-9 z"
         inkscape:connector-curvature="0"
         style="fill:#ffffff;fill-opacity:0.94117647" />
      <path
         id="path4977-4-5"
         d="m 63.6,31 c 0,0 -1.3,-7.2 -2.9,-7.2 -1.6,0 -2.4,5 -2.6,7.2 0,0 1.4,-0.4 2.8,-0.4 1.3,0 2.7,0.4 2.7,0.4 z"
         inkscape:connector-curvature="0"
         style="fill:#ff7f2a;fill-opacity:1" />
      <path
         id="path4979-6-0"
         d="m 16.3,30.3 c 0,0 -1.3,-7.2 -2.9,-7.2 -1.6,0 -2.4,5 -2.6,7.2 0,0 1.4,-0.4 2.8,-0.4 1.3,0.1 2.7,0.4 2.7,0.4 z"
         inkscape:connector-curvature="0"
         style="fill:#ff7f2a;fill-opacity:1" />
    </g>
  </g>
  <style
     id="style4928"
     type="text/css">
	.st0{fill:#D82A2A;}
	.st1{fill:#231F20;}
	.st2{fill:none;}
	.st3{fill:#1D1D1B;}
	.st4{fill:#FFFFFF;}
	.st5{fill:none;stroke:#000000;stroke-width:4;stroke-miterlimit:10;}
	.st6{stroke:#000000;stroke-width:4;stroke-miterlimit:10;}
</style>
</svg>
