<?xml version="1.0" encoding="UTF-8" standalone="no"?>
<!-- Created with Inkscape (http://www.inkscape.org/) -->

<svg
   xmlns:dc="http://purl.org/dc/elements/1.1/"
   xmlns:cc="http://creativecommons.org/ns#"
   xmlns:rdf="http://www.w3.org/1999/02/22-rdf-syntax-ns#"
   xmlns:svg="http://www.w3.org/2000/svg"
   xmlns="http://www.w3.org/2000/svg"
   xmlns:sodipodi="http://sodipodi.sourceforge.net/DTD/sodipodi-0.dtd"
   xmlns:inkscape="http://www.inkscape.org/namespaces/inkscape"
   width="157.67188mm"
   height="114.64339mm"
   viewBox="0 0 157.67187 114.64339"
   version="1.1"
   id="svg8"
   inkscape:version="0.92.1 r15371"
   sodipodi:docname="logo.svg">
  <defs
     id="defs2" />
  <sodipodi:namedview
     id="base"
     pagecolor="#ffffff"
     bordercolor="#666666"
     borderopacity="1.0"
     inkscape:pageopacity="0.0"
     inkscape:pageshadow="2"
     inkscape:zoom="0.7"
     inkscape:cx="694.48101"
     inkscape:cy="-70.806244"
     inkscape:document-units="mm"
     inkscape:current-layer="layer1"
     showgrid="false"
     inkscape:window-width="1920"
     inkscape:window-height="1056"
     inkscape:window-x="0"
     inkscape:window-y="0"
     inkscape:window-maximized="1"
     showguides="true"
     inkscape:guide-bbox="true"
     fit-margin-top="0"
     fit-margin-left="0"
     fit-margin-right="0"
     fit-margin-bottom="0" />
  <metadata
     id="metadata5">
    <rdf:RDF>
      <cc:Work
         rdf:about="">
        <dc:format>image/svg+xml</dc:format>
        <dc:type
           rdf:resource="http://purl.org/dc/dcmitype/StillImage" />
        <dc:title></dc:title>
      </cc:Work>
    </rdf:RDF>
  </metadata>
  <g
     inkscape:label="Layer 1"
     inkscape:groupmode="layer"
     id="layer1"
     transform="translate(-22.341716,-13.771497)">
    <text
       xml:space="preserve"
       style="font-style:normal;font-weight:normal;font-size:10.58333302px;line-height:125%;font-family:sans-serif;letter-spacing:0px;word-spacing:0px;fill:#000000;fill-opacity:1;stroke:none;stroke-width:0.26458332px;stroke-linecap:butt;stroke-linejoin:miter;stroke-opacity:1"
       x="125.11012"
       y="44.889877"
       id="text4597"><tspan
         sodipodi:role="line"
         id="tspan4595"
         x="125.11012"
         y="54.253647"
         style="stroke-width:0.26458332px" /></text>
    <text
       xml:space="preserve"
       style="font-style:normal;font-weight:normal;font-size:10.58333302px;line-height:125%;font-family:sans-serif;letter-spacing:0px;word-spacing:0px;fill:#000000;fill-opacity:1;stroke:none;stroke-width:0.26458332px;stroke-linecap:butt;stroke-linejoin:miter;stroke-opacity:1"
       x="125.67708"
       y="44.889877"
       id="text4601"><tspan
         sodipodi:role="line"
         id="tspan4599"
         x="125.67708"
         y="54.253647"
         style="stroke-width:0.26458332px" /></text>
    <text
       xml:space="preserve"
       style="font-style:normal;font-variant:normal;font-weight:normal;font-stretch:normal;font-size:11.7598238px;line-height:125%;font-family:'Ubuntu Condensed';-inkscape-font-specification:'Ubuntu Condensed, Normal';font-variant-ligatures:normal;font-variant-caps:normal;font-variant-numeric:normal;font-feature-settings:normal;text-align:start;letter-spacing:0px;word-spacing:0px;writing-mode:lr-tb;text-anchor:start;fill:#ffffff;fill-opacity:1;stroke:none;stroke-width:0.29399464px;stroke-linecap:butt;stroke-linejoin:miter;stroke-opacity:1"
       x="55.733547"
       y="74.808365"
       id="text4487-6-5-6"><tspan
         sodipodi:role="line"
         x="55.733547"
         y="85.774307"
         style="font-style:normal;font-variant:normal;font-weight:bold;font-stretch:normal;font-size:11.75978851px;font-family:'Josefin Sans';-inkscape-font-specification:'Josefin Sans Bold';font-variant-ligatures:normal;font-variant-caps:normal;font-variant-numeric:normal;font-feature-settings:normal;text-align:start;writing-mode:lr-tb;text-anchor:start;fill:#ffffff;stroke-width:0.29399464px"
         id="tspan5226-9-5" /></text>
    <text
       xml:space="preserve"
       style="font-style:normal;font-variant:normal;font-weight:bold;font-stretch:normal;font-size:24.9638176px;line-height:125%;font-family:'Josefin Sans';-inkscape-font-specification:'Josefin Sans, Bold';font-variant-ligatures:normal;font-variant-caps:normal;font-variant-numeric:normal;font-feature-settings:normal;text-align:start;letter-spacing:0px;word-spacing:0px;writing-mode:lr-tb;text-anchor:start;fill:#ff7f2a;fill-opacity:1;stroke:none;stroke-width:0.62409526px;stroke-linecap:butt;stroke-linejoin:miter;stroke-opacity:1"
       x="20.868851"
       y="127.79079"
       id="text4487-6-56"><tspan
         sodipodi:role="line"
         x="20.868851"
         y="127.79079"
         style="font-style:normal;font-variant:normal;font-weight:bold;font-stretch:normal;font-size:24.9638176px;font-family:'Josefin Sans';-inkscape-font-specification:'Josefin Sans, Bold';font-variant-ligatures:normal;font-variant-caps:normal;font-variant-numeric:normal;font-feature-settings:normal;text-align:start;writing-mode:lr-tb;text-anchor:start;fill:#ff7f2a;fill-opacity:1;stroke-width:0.62409526px"
         id="tspan5226-5">kanate <tspan
   style="fill:#ffffff;stroke-width:0.62409526px"
   id="tspan5457">universe</tspan></tspan></text>
    <g
       id="g5004-8-9"
       transform="matrix(1.0019831,0,0,1.0019831,63.108717,8.7615814)"
       style="fill:#303c4f;fill-opacity:0.94117647">
      <path
         id="path4963-0-0"
         d="m 31.7,11.4 c 0,0 -1.1,-6.4 -2.5,-6.4 -1.4,0 -2.1,4.4 -2.3,6.4 0,0 1.2,-0.3 2.4,-0.3 1.2,0 2.4,0.3 2.4,0.3 z"
         inkscape:connector-curvature="0"
         style="fill:#ff7f2a;fill-opacity:1" />
      <path
         id="path4965-5-7"
         d="m 48.6,11.4 c 0,0 -1.1,-6.4 -2.6,-6.4 -1.4,0 -2.1,4.4 -2.3,6.4 0,0 1.2,-0.3 2.4,-0.3 1.3,0 2.5,0.3 2.5,0.3 z"
         inkscape:connector-curvature="0"
         style="fill:#ff7f2a;fill-opacity:1" />
      <path
         id="path4967-6-6"
         d="m 19,66.2 c 1.6,-2.6 3.4,-11 3.4,-14.8 0,-3.8 -0.6,-11.8 -2.8,-14.5 -2.2,-2.7 -8.3,-7.4 -13.1,3 -4.8,10.5 0.5,22.3 2.4,24.6 1.8,2.3 7,6.6 10.1,1.7 z"
         inkscape:connector-curvature="0"
         style="fill:#ffffff;fill-opacity:0.94117647" />
      <path
         id="path4969-6-3"
         d="m 33.8,46 c 3.3,-6 3.3,-16.6 2.6,-21.3 -0.7,-4.6 -2.6,-10.6 -7,-10.7 -4.3,0 -8.4,7 -8.2,14.4 0,0 0.1,9.2 2.9,14 2.8,4.8 6.4,9.6 9.7,3.6 z"
         inkscape:connector-curvature="0"
         style="fill:#ffffff;fill-opacity:0.94117647" />
      <path
         id="path4971-4-7"
         d="m 45.6,48.3 c 5.4,1.5 7.8,-9.7 8.4,-11.9 0.5,-2.2 1,-12.2 -0.7,-16 -1.4,-3.1 -2.5,-6.2 -7.3,-6.3 -1.6,0 -6.8,1.2 -6.7,13.4 0,12.3 0.9,19.3 6.3,20.8 z"
         inkscape:connector-curvature="0"
         style="fill:#ffffff;fill-opacity:0.94117647" />
      <path
         id="path4973-0-6"
         d="m 71.3,45.6 c -0.5,-4.2 -3.8,-11.3 -9.5,-11.2 -5.7,0.1 -7.8,6.4 -8,15.6 0,0 -0.3,9.6 3,14.3 3.4,4.7 7.1,5.5 10.2,0.4 3.1,-5.1 5,-13.3 4.3,-19.1 z"
         inkscape:connector-curvature="0"
         style="fill:#ffffff;fill-opacity:0.94117647" />
      <path
         id="path4975-0-1"
         d="m 53.8,74.2 c -3.4,-3 -4.8,-4.2 -7,-11.8 -2.1,-7.6 -8.4,-8.2 -8.4,-8.2 0,0 -3.8,-0.4 -6.1,2.6 -2.3,3 -2.8,10.9 -4.9,13.7 -2.1,2.8 -9,7.8 -9.4,11.5 -0.3,3.8 -0.1,13 20.3,12.6 20.4,-0.3 20.9,-8.2 20.9,-11.4 0.2,-3.7 -1.9,-6 -5.4,-9 z"
         inkscape:connector-curvature="0"
         style="fill:#ffffff;fill-opacity:0.94117647" />
      <path
         id="path4977-4-5"
         d="m 63.6,31 c 0,0 -1.3,-7.2 -2.9,-7.2 -1.6,0 -2.4,5 -2.6,7.2 0,0 1.4,-0.4 2.8,-0.4 1.3,0 2.7,0.4 2.7,0.4 z"
         inkscape:connector-curvature="0"
         style="fill:#ff7f2a;fill-opacity:1" />
      <path
         id="path4979-6-0"
         d="m 16.3,30.3 c 0,0 -1.3,-7.2 -2.9,-7.2 -1.6,0 -2.4,5 -2.6,7.2 0,0 1.4,-0.4 2.8,-0.4 1.3,0.1 2.7,0.4 2.7,0.4 z"
         inkscape:connector-curvature="0"
         style="fill:#ff7f2a;fill-opacity:1" />
    </g>
  </g>
  <style
     id="style4928"
     type="text/css">
	.st0{fill:#D82A2A;}
	.st1{fill:#231F20;}
	.st2{fill:none;}
	.st3{fill:#1D1D1B;}
	.st4{fill:#FFFFFF;}
	.st5{fill:none;stroke:#000000;stroke-width:4;stroke-miterlimit:10;}
	.st6{stroke:#000000;stroke-width:4;stroke-miterlimit:10;}
</style>
</svg>
